<?xml version="1.0" encoding="UTF-8"?>
<!-- Generator: visioncortex VTracer -->
<svg id="svg" version="1.1" xmlns="http://www.w3.org/2000/svg" style="display: block;" viewBox="0 0 454 549"><path d="M0 0 C4.01197124 0.75224461 5.24475749 2.60565438 8 5.5625 C9.22665901 6.3105266 10.47814897 7.01919538 11.75 7.6875 C15 9.5625 15 9.5625 16 12.5625 C18.11469098 13.66766055 18.11469098 13.66766055 21 14.5625 C36.91440133 19.98331795 51.05463152 27.33394425 65.63427734 35.66845703 C70.92485732 38.64570347 76.29741684 41.45800185 81.6875 44.25 C82.61288574 44.73049805 83.53827148 45.21099609 84.49169922 45.70605469 C89.36436301 48.23467404 89.36436301 48.23467404 94.29345703 50.65014648 C106.00873658 56.2207391 110.08621802 68.24775974 115 79.5625 C115.61101562 80.93414307 115.61101562 80.93414307 116.234375 82.33349609 C125.13563513 102.43171032 131.26954289 123.17883843 137.33795166 144.26416016 C139.00030973 150.03513421 140.68425005 155.79978464 142.375 161.5625 C142.84510498 163.17523804 142.84510498 163.17523804 143.32470703 164.82055664 C145.52407198 172.25854794 148.09188034 179.45905345 151.06640625 186.62109375 C152 189.5625 152 189.5625 152.02734375 191.72265625 C149.35973459 196.50000953 143.42062643 198.37976173 138.5625 200.25 C137.23556839 200.76273964 135.90875335 201.27578101 134.58203125 201.7890625 C133.85580566 202.06782227 133.12958008 202.34658203 132.38134766 202.63378906 C129.76741705 203.65320592 127.17099181 204.71110059 124.57421875 205.7734375 C112.56644105 210.64781135 100.67463285 214.81003504 88 217.5625 C86.23076172 217.94728516 86.23076172 217.94728516 84.42578125 218.33984375 C76.48236961 219.8058775 69.00502418 219.45061363 61 218.5625 C61.226875 219.7175 61.45375 220.8725 61.6875 222.0625 C62.67477422 230.86453637 60.16650038 240.48658225 57.25 248.75 C54.97582218 255.97949158 56.36232704 263.28839661 57.74609375 270.59765625 C60.88074466 287.48279939 61.00627687 304.78860918 59.38012695 321.87548828 C58.66380928 329.54344657 59.73947948 334.82656391 62.453125 341.9765625 C67.74600356 356.72687135 70.79271912 373.17852548 70.0877533 388.84112549 C69.87776278 394.6672906 70.40898516 399.95990489 71.45703125 405.6796875 C73.55619018 418.33701242 73.46524986 430.95312831 73.51123047 443.75073242 C73.52702742 446.80409231 73.55999715 449.85695023 73.59375 452.91015625 C73.59072876 453.81870865 73.58770752 454.72726105 73.58459473 455.66334534 C73.65193128 461.49449635 74.60145014 466.57727797 76.29699707 472.15843201 C77.29691323 475.57785791 77.68994623 478.04377425 77 481.5625 C68.60696598 491.25652475 54.07205469 493.55968611 41.9921875 495.1328125 C41.05051224 495.25763504 40.10883698 495.38245758 39.1386261 495.51106262 C27.52685284 496.97307464 15.86963177 497.63709442 4.1875 498.25 C3.02946869 498.31253967 1.87143738 498.37507935 0.67831421 498.43951416 C-29.14388993 500.03434475 -58.18826987 499.79061412 -87.89697266 496.7746582 C-94.07418396 496.15148701 -100.25486101 495.56654535 -106.4375 495 C-107.1195047 494.93678558 -107.8015094 494.87357117 -108.50418091 494.80844116 C-117.32774351 494.00100817 -126.14375518 493.41932125 -134.99609375 493.03515625 C-135.93998459 492.99410263 -136.88387543 492.95304901 -137.85636902 492.91075134 C-142.46420428 492.71526742 -147.0719654 492.53769884 -151.68139648 492.38452148 C-160.44485985 492.06757467 -169.10002308 491.46365964 -177.7890625 490.25 C-179.0000209 490.09168701 -179.0000209 490.09168701 -180.23544312 489.93017578 C-186.55676557 488.96586842 -192.31400617 487.18116987 -196.97729492 482.63476562 C-198.24227638 480.07158525 -198.37274963 478.26211851 -198.36328125 475.40625 C-198.36432861 474.39409424 -198.36537598 473.38193848 -198.36645508 472.33911133 C-198.33974731 470.71718872 -198.33974731 470.71718872 -198.3125 469.0625 C-198.30049561 467.94190186 -198.28849121 466.82130371 -198.27612305 465.66674805 C-198.02117669 450.39708861 -196.4814106 435.96924847 -192.67700195 421.1574707 C-190.66905724 413.1489441 -190.75333162 406.11069899 -191.73339844 397.96630859 C-194.4876637 373.13252126 -188.75251093 350.10541844 -181.79956055 326.44824219 C-179.67098087 319.10960538 -178.68002541 312.92317759 -179.3125 305.3125 C-179.92573298 290.86802915 -174.75114253 276.90589641 -168.77539062 263.89648438 C-165.93290952 257.61954246 -165.77943544 253.29175009 -167 246.5625 C-167.25426215 244.77906534 -167.50553405 242.99520196 -167.75390625 241.2109375 C-168.02089231 239.45273662 -168.29042525 237.69492061 -168.5625 235.9375 C-168.70107422 235.02871094 -168.83964844 234.11992187 -168.98242188 233.18359375 C-169.31933937 230.9762033 -169.65855665 228.76919409 -170 226.5625 C-170.86012695 226.41329102 -171.72025391 226.26408203 -172.60644531 226.11035156 C-191.97821025 222.68941275 -211.01644272 218.48540745 -230 213.3125 C-230.97151001 213.05069946 -231.94302002 212.78889893 -232.94396973 212.51916504 C-235.71590246 211.76884185 -238.48356329 211.00468799 -241.25 210.234375 C-242.07763855 210.00955444 -242.9052771 209.78473389 -243.75799561 209.55310059 C-247.73097279 208.42369771 -250.88494736 207.42005837 -254 204.5625 C-253.42543645 199.70282684 -252.39190433 195.38442202 -250.81640625 190.7578125 C-247.42802548 180.36089776 -245.1528418 169.70522137 -242.75250244 159.04663086 C-238.52032025 140.30497001 -234.15760315 121.59381889 -229.37454224 102.98443604 C-228.88297028 101.06814399 -228.39604985 99.1506514 -227.91427612 97.23187256 C-225.62642707 88.14486026 -223.16451848 79.2804449 -219.4609375 70.65625 C-219.19076813 70.0219104 -218.92059875 69.3875708 -218.64224243 68.73400879 C-215.82306759 62.52752486 -212.32278623 57.77960549 -206.11328125 54.703125 C-205.18539795 54.23293945 -204.25751465 53.76275391 -203.30151367 53.27832031 C-202.31513916 52.79459961 -201.32876465 52.31087891 -200.3125 51.8125 C-198.20980592 50.75224116 -196.10825152 49.68971926 -194.0078125 48.625 C-192.9755957 48.10421875 -191.94337891 47.5834375 -190.87988281 47.046875 C-187.07723762 45.08688155 -183.38769491 42.95724512 -179.6875 40.8125 C-173.89884307 37.47988653 -167.96870147 34.58814645 -161.88671875 31.83984375 C-145.1955601 24.2797971 -130.80736241 17.24604648 -117.61328125 4.203125 C-114.05687147 1.97040137 -111.03120169 1.95377086 -107 2.5625 C-103.48579973 3.50990195 -100.16409383 4.89058207 -96.79492188 6.25390625 C-84.87029575 10.82742983 -72.51086187 10.88474475 -59.91821289 10.82324219 C-57.33390449 10.81258824 -54.75030213 10.82315982 -52.16601562 10.8359375 C-43.76999727 10.84343336 -35.47579172 10.57168331 -27.125 9.6640625 C-26.39779251 9.5855304 -25.67058502 9.50699829 -24.92134094 9.42608643 C-17.67962814 8.55015626 -10.94182918 6.91596334 -5.1875 2.3125 C-3 0.5625 -3 0.5625 0 0 Z " transform="translate(291,11.4375)" style="fill: #ECECEC;"/></svg>